<svg id="visual" viewBox="0 0 900 600" width="900" height="600" xmlns="http://www.w3.org/2000/svg" xmlns:xlink="http://www.w3.org/1999/xlink" version="1.1"><rect x="0" y="0" width="900" height="600" fill="#dfd4ce"></rect><path d="M468 600L437.5 580C407 560 346 520 340.8 480C335.7 440 386.3 400 403.5 360C420.7 320 404.3 280 376.7 240C349 200 310 160 330.8 120C351.7 80 432.3 40 472.7 20L513 0L900 0L900 20C900 40 900 80 900 120C900 160 900 200 900 240C900 280 900 320 900 360C900 400 900 440 900 480C900 520 900 560 900 580L900 600Z" fill="#965626"></path><path d="M529 600L528 580C527 560 525 520 499.5 480C474 440 425 400 433.2 360C441.3 320 506.7 280 525.3 240C544 200 516 160 522.3 120C528.7 80 569.3 40 589.7 20L610 0L900 0L900 20C900 40 900 80 900 120C900 160 900 200 900 240C900 280 900 320 900 360C900 400 900 440 900 480C900 520 900 560 900 580L900 600Z" fill="#af723d"></path><path d="M515 600L532.3 580C549.7 560 584.3 520 578.2 480C572 440 525 400 513.2 360C501.3 320 524.7 280 554.5 240C584.3 200 620.7 160 628.3 120C636 80 615 40 604.5 20L594 0L900 0L900 20C900 40 900 80 900 120C900 160 900 200 900 240C900 280 900 320 900 360C900 400 900 440 900 480C900 520 900 560 900 580L900 600Z" fill="#c88e56"></path><path d="M694 600L692.8 580C691.7 560 689.3 520 704.8 480C720.3 440 753.7 400 777.2 360C800.7 320 814.3 280 814.8 240C815.3 200 802.7 160 782.3 120C762 80 734 40 720 20L706 0L900 0L900 20C900 40 900 80 900 120C900 160 900 200 900 240C900 280 900 320 900 360C900 400 900 440 900 480C900 520 900 560 900 580L900 600Z" fill="#e1ab70"></path></svg>