<svg id="visual" viewBox="0 0 900 600" width="900" height="600" xmlns="http://www.w3.org/2000/svg" xmlns:xlink="http://www.w3.org/1999/xlink" version="1.1"><rect x="0" y="0" width="900" height="600" fill="#dfd4ce"></rect><path d="M0 260L129 245L257 334L386 278L514 256L643 271L771 217L900 302L900 601L771 601L643 601L514 601L386 601L257 601L129 601L0 601Z" fill="#6c412e"></path><path d="M0 353L129 265L257 374L386 339L514 284L643 362L771 290L900 343L900 601L771 601L643 601L514 601L386 601L257 601L129 601L0 601Z" fill="#735231"></path><path d="M0 385L129 344L257 417L386 406L514 385L643 348L771 364L900 363L900 601L771 601L643 601L514 601L386 601L257 601L129 601L0 601Z" fill="#766337"></path><path d="M0 358L129 432L257 447L386 438L514 377L643 432L771 447L900 376L900 601L771 601L643 601L514 601L386 601L257 601L129 601L0 601Z" fill="#757543"></path><path d="M0 423L129 430L257 442L386 478L514 450L643 419L771 414L900 467L900 601L771 601L643 601L514 601L386 601L257 601L129 601L0 601Z" fill="#718755"></path><path d="M0 526L129 495L257 499L386 459L514 471L643 473L771 492L900 527L900 601L771 601L643 601L514 601L386 601L257 601L129 601L0 601Z" fill="#69996d"></path><path d="M0 518L129 558L257 528L386 517L514 539L643 533L771 535L900 509L900 601L771 601L643 601L514 601L386 601L257 601L129 601L0 601Z" fill="#5eaa8a"></path></svg>