<svg id="visual" viewBox="0 0 960 540" width="960" height="540" xmlns="http://www.w3.org/2000/svg" xmlns:xlink="http://www.w3.org/1999/xlink" version="1.1"><path d="M0 163L32 152.2C64 141.3 128 119.7 192 109.8C256 100 320 102 384 123.7C448 145.3 512 186.7 576 209.2C640 231.7 704 235.3 768 209.2C832 183 896 127 928 99L960 71L960 0L928 0C896 0 832 0 768 0C704 0 640 0 576 0C512 0 448 0 384 0C320 0 256 0 192 0C128 0 64 0 32 0L0 0Z" fill="#f0f0f0"></path><path d="M0 244L32 227.8C64 211.7 128 179.3 192 170.3C256 161.3 320 175.7 384 195.5C448 215.3 512 240.7 576 258.7C640 276.7 704 287.3 768 264.8C832 242.3 896 186.7 928 158.8L960 131L960 69L928 97C896 125 832 181 768 207.2C704 233.3 640 229.7 576 207.2C512 184.7 448 143.3 384 121.7C320 100 256 98 192 107.8C128 117.7 64 139.3 32 150.2L0 161Z" fill="#ececec"></path><path d="M0 363L32 346.8C64 330.7 128 298.3 192 277.7C256 257 320 248 384 259.7C448 271.3 512 303.7 576 324.3C640 345 704 354 768 339.5C832 325 896 287 928 268L960 249L960 129L928 156.8C896 184.7 832 240.3 768 262.8C704 285.3 640 274.7 576 256.7C512 238.7 448 213.3 384 193.5C320 173.7 256 159.3 192 168.3C128 177.3 64 209.7 32 225.8L0 242Z" fill="#e9e9e9"></path><path d="M0 471L32 444.8C64 418.7 128 366.3 192 340.2C256 314 320 314 384 331.2C448 348.3 512 382.7 576 403.3C640 424 704 431 768 420.2C832 409.3 896 380.7 928 366.3L960 352L960 247L928 266C896 285 832 323 768 337.5C704 352 640 343 576 322.3C512 301.7 448 269.3 384 257.7C320 246 256 255 192 275.7C128 296.3 64 328.7 32 344.8L0 361Z" fill="#e1e1e1"></path><path d="M0 541L32 541C64 541 128 541 192 541C256 541 320 541 384 541C448 541 512 541 576 541C640 541 704 541 768 541C832 541 896 541 928 541L960 541L960 350L928 364.3C896 378.7 832 407.3 768 418.2C704 429 640 422 576 401.3C512 380.7 448 346.3 384 329.2C320 312 256 312 192 338.2C128 364.3 64 416.7 32 442.8L0 469Z" fill="#d9d9d9"></path></svg>