<svg xmlns="http://www.w3.org/2000/svg" xmlns:xlink="http://www.w3.org/1999/xlink" width="290" zoomAndPan="magnify" viewBox="0 0 217.5 92.999996" height="124" preserveAspectRatio="xMidYMid meet" version="1.0"><defs><clipPath id="c942b75694"><path d="M 0 0.105469 L 217 0.105469 L 217 92.890625 L 0 92.890625 Z M 0 0.105469 " clip-rule="nonzero"/></clipPath><clipPath id="1efdc80199"><path d="M 0 0.105469 L 217 0.105469 L 217 92.773438 L 0 92.773438 Z M 0 0.105469 " clip-rule="nonzero"/></clipPath><clipPath id="4e3ba9a272"><path d="M 0 0.105469 L 217 0.105469 L 217 92.773438 L 0 92.773438 Z M 0 0.105469 " clip-rule="nonzero"/></clipPath><clipPath id="d06af4e72c"><rect x="0" width="217" y="0" height="93"/></clipPath><clipPath id="cd30fe4ae5"><path d="M 0 0.105469 L 20.703125 0.105469 L 20.703125 92.890625 L 0 92.890625 Z M 0 0.105469 " clip-rule="nonzero"/></clipPath><clipPath id="b32a67f192"><path d="M 5.980469 -7.367188 C 14.113281 -7.367188 20.703125 -0.777344 20.703125 7.355469 L 20.703125 87.285156 C 20.703125 95.414062 14.113281 102.007812 5.980469 102.007812 C -2.152344 102.007812 -8.742188 95.414062 -8.742188 87.285156 L -8.742188 7.355469 C -8.742188 -0.777344 -2.152344 -7.367188 5.980469 -7.367188 Z M 5.980469 -7.367188 " clip-rule="nonzero"/></clipPath><clipPath id="a3fcdfad25"><path d="M 0 0.105469 L 20.703125 0.105469 L 20.703125 92.890625 L 0 92.890625 Z M 0 0.105469 " clip-rule="nonzero"/></clipPath><clipPath id="24844341ad"><path d="M 5.980469 -7.367188 C 14.113281 -7.367188 20.703125 -0.777344 20.703125 7.355469 L 20.703125 87.285156 C 20.703125 95.414062 14.113281 102.007812 5.980469 102.007812 C -2.152344 102.007812 -8.742188 95.414062 -8.742188 87.285156 L -8.742188 7.355469 C -8.742188 -0.777344 -2.152344 -7.367188 5.980469 -7.367188 Z M 5.980469 -7.367188 " clip-rule="nonzero"/></clipPath><clipPath id="1bfc58ed19"><rect x="0" width="21" y="0" height="93"/></clipPath><clipPath id="1ed55e31ed"><path d="M 197.652344 0.105469 L 217 0.105469 L 217 35.226562 L 197.652344 35.226562 Z M 197.652344 0.105469 " clip-rule="nonzero"/></clipPath><clipPath id="62b23a0a6b"><path d="M 210.121094 34.613281 L 197.796875 2.203125 C 197.617188 1.730469 197.683594 1.195312 197.972656 0.777344 C 198.261719 0.355469 198.738281 0.105469 199.246094 0.105469 L 222.59375 0.105469 C 223.101562 0.105469 223.578125 0.355469 223.867188 0.777344 C 224.15625 1.195312 224.21875 1.730469 224.039062 2.203125 L 211.714844 34.613281 C 211.589844 34.945312 211.273438 35.164062 210.917969 35.164062 C 210.5625 35.164062 210.246094 34.945312 210.121094 34.613281 Z M 210.121094 34.613281 " clip-rule="nonzero"/></clipPath><clipPath id="73f4e08d5a"><path d="M 0.652344 0.105469 L 20 0.105469 L 20 35.226562 L 0.652344 35.226562 Z M 0.652344 0.105469 " clip-rule="nonzero"/></clipPath><clipPath id="e9b969d861"><path d="M 13.121094 34.613281 L 0.796875 2.203125 C 0.617188 1.730469 0.683594 1.195312 0.972656 0.777344 C 1.261719 0.355469 1.738281 0.105469 2.246094 0.105469 L 25.59375 0.105469 C 26.101562 0.105469 26.578125 0.355469 26.867188 0.777344 C 27.15625 1.195312 27.21875 1.730469 27.039062 2.203125 L 14.714844 34.613281 C 14.589844 34.945312 14.273438 35.164062 13.917969 35.164062 C 13.5625 35.164062 13.246094 34.945312 13.121094 34.613281 Z M 13.121094 34.613281 " clip-rule="nonzero"/></clipPath><clipPath id="0525a1f281"><rect x="0" width="20" y="0" height="36"/></clipPath><clipPath id="f2d2aade0b"><path d="M 194.457031 78.921875 L 217 78.921875 L 217 92.890625 L 194.457031 92.890625 Z M 194.457031 78.921875 " clip-rule="nonzero"/></clipPath><clipPath id="dd1544310a"><path d="M 206.925781 113.429688 L 194.601562 81.019531 C 194.421875 80.542969 194.484375 80.007812 194.773438 79.589844 C 195.0625 79.171875 195.539062 78.921875 196.050781 78.921875 L 219.394531 78.921875 C 219.90625 78.921875 220.382812 79.171875 220.671875 79.589844 C 220.960938 80.007812 221.023438 80.542969 220.84375 81.019531 L 208.519531 113.429688 C 208.394531 113.761719 208.078125 113.980469 207.722656 113.980469 C 207.367188 113.980469 207.050781 113.761719 206.925781 113.429688 Z M 206.925781 113.429688 " clip-rule="nonzero"/></clipPath><clipPath id="0a705172c7"><path d="M 0.457031 0.921875 L 23 0.921875 L 23 14.890625 L 0.457031 14.890625 Z M 0.457031 0.921875 " clip-rule="nonzero"/></clipPath><clipPath id="2746cd275b"><path d="M 12.925781 35.429688 L 0.601562 3.019531 C 0.421875 2.542969 0.484375 2.007812 0.773438 1.589844 C 1.0625 1.171875 1.539062 0.921875 2.050781 0.921875 L 25.394531 0.921875 C 25.90625 0.921875 26.382812 1.171875 26.671875 1.589844 C 26.960938 2.007812 27.023438 2.542969 26.84375 3.019531 L 14.519531 35.429688 C 14.394531 35.761719 14.078125 35.980469 13.722656 35.980469 C 13.367188 35.980469 13.050781 35.761719 12.925781 35.429688 Z M 12.925781 35.429688 " clip-rule="nonzero"/></clipPath><clipPath id="b4b7da26b9"><rect x="0" width="23" y="0" height="15"/></clipPath><clipPath id="171ad8c466"><path d="M 183 0.105469 L 217 0.105469 L 217 92.890625 L 183 92.890625 Z M 183 0.105469 " clip-rule="nonzero"/></clipPath><clipPath id="9ae5f310f4"><path d="M 183.117188 113.445312 L 120.355469 50.683594 L 186.058594 -15.015625 L 248.816406 47.742188 Z M 183.117188 113.445312 " clip-rule="nonzero"/></clipPath><clipPath id="54fc269685"><path d="M 185.90625 -14.863281 L 248.664062 47.894531 L 183.117188 113.445312 Z M 185.90625 -14.863281 " clip-rule="nonzero"/></clipPath><clipPath id="146a03e100"><path d="M 0 0.105469 L 34 0.105469 L 34 92.890625 L 0 92.890625 Z M 0 0.105469 " clip-rule="nonzero"/></clipPath><clipPath id="56e30d76c2"><path d="M 0.117188 113.445312 L -62.644531 50.683594 L 3.058594 -15.015625 L 65.816406 47.742188 Z M 0.117188 113.445312 " clip-rule="nonzero"/></clipPath><clipPath id="9da9385a29"><path d="M 2.90625 -14.863281 L 65.664062 47.894531 L 0.117188 113.445312 Z M 2.90625 -14.863281 " clip-rule="nonzero"/></clipPath><clipPath id="ecb60d6a31"><rect x="0" width="34" y="0" height="93"/></clipPath><clipPath id="fab3255d17"><path d="M 207 21 L 217 21 L 217 72 L 207 72 Z M 207 21 " clip-rule="nonzero"/></clipPath><clipPath id="f5aa94d2a0"><path d="M 232.277344 20.195312 L 258.730469 46.652344 L 232.277344 73.109375 L 205.820312 46.652344 Z M 232.277344 20.195312 " clip-rule="nonzero"/></clipPath><clipPath id="a91bc4d739"><path d="M 232.277344 20.195312 L 258.730469 46.652344 L 232.277344 73.109375 L 205.820312 46.652344 Z M 232.277344 20.195312 " clip-rule="nonzero"/></clipPath><clipPath id="6f37035d70"><path d="M 232.277344 20.195312 L 258.730469 46.652344 L 232.277344 73.109375 L 205.820312 46.652344 Z M 232.277344 20.195312 " clip-rule="nonzero"/></clipPath><clipPath id="f2ffb9dc05"><path d="M 206 20 L 217 20 L 217 73 L 206 73 Z M 206 20 " clip-rule="nonzero"/></clipPath><clipPath id="ef9ef969da"><path d="M 232.277344 20.195312 L 258.730469 46.652344 L 232.277344 73.109375 L 205.820312 46.652344 Z M 232.277344 20.195312 " clip-rule="nonzero"/></clipPath><clipPath id="8de5a2b86e"><path d="M 232.277344 20.195312 L 258.730469 46.652344 L 232.277344 73.109375 L 205.820312 46.652344 Z M 232.277344 20.195312 " clip-rule="nonzero"/></clipPath><clipPath id="76bb7db88b"><path d="M 232.277344 20.195312 L 258.730469 46.652344 L 232.277344 73.109375 L 205.820312 46.652344 Z M 232.277344 20.195312 " clip-rule="nonzero"/></clipPath></defs><g clip-path="url(#c942b75694)"><path fill="#ffffff" d="M 0 0.105469 L 217 0.105469 L 217 92.894531 L 0 92.894531 Z M 0 0.105469 " fill-opacity="1" fill-rule="nonzero"/><path fill="#ffffff" d="M 0 0.105469 L 217 0.105469 L 217 92.894531 L 0 92.894531 Z M 0 0.105469 " fill-opacity="1" fill-rule="nonzero"/></g><g clip-path="url(#1efdc80199)"><g transform="matrix(1, 0, 0, 1, 0, -0.000000000000008368)"><g clip-path="url(#d06af4e72c)"><g clip-path="url(#4e3ba9a272)"><path fill="#fbcf32" d="M 0 0.105469 L 216.824219 0.105469 L 216.824219 92.773438 L 0 92.773438 Z M 0 0.105469 " fill-opacity="1" fill-rule="nonzero"/></g></g></g></g><g clip-path="url(#cd30fe4ae5)"><g clip-path="url(#b32a67f192)"><g transform="matrix(1, 0, 0, 1, 0, -0.000000000000008368)"><g clip-path="url(#1bfc58ed19)"><g clip-path="url(#a3fcdfad25)"><g clip-path="url(#24844341ad)"><path fill="#ff66c4" d="M -8.742188 -7.367188 L 20.703125 -7.367188 L 20.703125 102.019531 L -8.742188 102.019531 Z M -8.742188 -7.367188 " fill-opacity="1" fill-rule="nonzero"/></g></g></g></g></g></g><g clip-path="url(#1ed55e31ed)"><g clip-path="url(#62b23a0a6b)"><g transform="matrix(1, 0, 0, 1, 197, -0.000000000000008368)"><g clip-path="url(#0525a1f281)"><g clip-path="url(#73f4e08d5a)"><g clip-path="url(#e9b969d861)"><path fill="#ffffff" d="M 0 0.105469 L 27.835938 0.105469 L 27.835938 36.75 L 0 36.75 Z M 0 0.105469 " fill-opacity="1" fill-rule="nonzero"/></g></g></g></g></g></g><g clip-path="url(#f2d2aade0b)"><g clip-path="url(#dd1544310a)"><g transform="matrix(1, 0, 0, 1, 194, 78)"><g clip-path="url(#b4b7da26b9)"><g clip-path="url(#0a705172c7)"><g clip-path="url(#2746cd275b)"><path fill="#ffffff" d="M -0.195312 0.921875 L 27.640625 0.921875 L 27.640625 37.566406 L -0.195312 37.566406 Z M -0.195312 0.921875 " fill-opacity="1" fill-rule="nonzero"/></g></g></g></g></g></g><g clip-path="url(#171ad8c466)"><g clip-path="url(#9ae5f310f4)"><g clip-path="url(#54fc269685)"><g transform="matrix(1, 0, 0, 1, 183, -0.000000000000008368)"><g clip-path="url(#ecb60d6a31)"><g clip-path="url(#146a03e100)"><g clip-path="url(#56e30d76c2)"><g clip-path="url(#9da9385a29)"><path fill="#ffd8af" d="M 0.117188 113.445312 L -62.644531 50.683594 L 2.8125 -14.773438 L 65.574219 47.988281 Z M 0.117188 113.445312 " fill-opacity="1" fill-rule="nonzero"/></g></g></g></g></g></g></g></g><g clip-path="url(#fab3255d17)"><g clip-path="url(#f5aa94d2a0)"><g clip-path="url(#a91bc4d739)"><g clip-path="url(#6f37035d70)"><path fill="#000000" d="M 232.195312 21.597656 L 207.054688 46.734375 L 232.195312 71.871094 Z M 232.195312 21.597656 " fill-opacity="1" fill-rule="nonzero"/></g></g></g></g><g clip-path="url(#f2ffb9dc05)"><g clip-path="url(#ef9ef969da)"><g clip-path="url(#8de5a2b86e)"><g clip-path="url(#76bb7db88b)"><path fill="#000000" d="M 231.617188 72.449219 L 206.480469 47.3125 C 206.066406 46.898438 206.066406 46.40625 206.398438 46.074219 L 231.535156 20.9375 C 231.78125 20.691406 232.195312 20.609375 232.523438 20.773438 C 232.851562 20.773438 233.101562 21.183594 233.101562 21.515625 L 233.101562 71.789062 C 233.101562 72.117188 232.933594 72.449219 232.605469 72.613281 C 232.195312 72.695312 231.863281 72.695312 231.617188 72.449219 Z M 208.292969 46.652344 L 231.285156 69.644531 L 231.285156 23.65625 Z M 208.292969 46.652344 " fill-opacity="1" fill-rule="nonzero"/></g></g></g></g></svg>